<svg width="21" height="22" viewBox="0 0 21 22" fill="none" xmlns="http://www.w3.org/2000/svg">
<path d="M19.9234 1.78266C18.4914 0.350649 16.1696 0.350686 14.7376 1.78277L1.76741 14.754C1.38925 15.1322 1.12845 15.6116 1.01638 16.1346L0.0166637 20.7999C-0.0366463 21.0487 0.0397864 21.3075 0.219681 21.4874C0.399576 21.6673 0.658401 21.7437 0.907161 21.6904L5.57242 20.6907C6.09547 20.5786 6.57495 20.3178 6.95317 19.9395L19.9235 6.96822C21.3553 5.53623 21.3553 3.21461 19.9234 1.78266ZM15.7983 2.84339C16.6445 1.99713 18.0165 1.99711 18.8627 2.84333C19.7089 3.6895 19.7089 5.0614 18.8628 5.90761L18.187 6.58343L15.1227 3.51908L15.7983 2.84339ZM14.062 4.57979L17.1264 7.64412L5.8925 18.8789C5.71873 19.0527 5.49843 19.1725 5.25813 19.224L1.72623 19.9809L2.48309 16.4488C2.53457 16.2086 2.65438 15.9883 2.82811 15.8146L14.062 4.57979Z" fill="#5775A4"/>
</svg>
