<svg width="20" height="21" viewBox="0 0 20 21" fill="none" xmlns="http://www.w3.org/2000/svg">
<path d="M10.248 0.0828857C11.981 0.0828857 13.3972 1.43934 13.4929 3.14847L13.498 3.33289H18.748C19.1622 3.33289 19.498 3.66868 19.498 4.08289C19.498 4.46259 19.2158 4.77638 18.8498 4.82604L18.748 4.83289H17.952L16.6719 17.8521C16.5392 19.2012 15.4464 20.2429 14.1106 20.3274L13.9351 20.3329H6.56098C5.20539 20.3329 4.0617 19.3474 3.84688 18.0263L3.82419 17.8521L2.54305 4.83289H1.74805C1.36835 4.83289 1.05456 4.55074 1.0049 4.18466L0.998047 4.08289C0.998047 3.70319 1.2802 3.3894 1.64628 3.33974L1.74805 3.33289H6.99805C6.99805 1.53796 8.45315 0.0828857 10.248 0.0828857ZM16.445 4.83289H4.05005L5.31698 17.7053C5.37573 18.3025 5.84838 18.7672 6.4339 18.8265L6.56098 18.8329H13.9351C14.5352 18.8329 15.0439 18.408 15.1603 17.8311L15.1791 17.7053L16.445 4.83289ZM11.998 7.58289C12.3777 7.58289 12.6915 7.86504 12.7412 8.23112L12.748 8.33289V15.3329C12.748 15.7471 12.4122 16.0829 11.998 16.0829C11.6183 16.0829 11.3045 15.8007 11.2548 15.4347L11.248 15.3329V8.33289C11.248 7.91868 11.5838 7.58289 11.998 7.58289ZM8.49805 7.58289C8.87775 7.58289 9.19155 7.86504 9.24125 8.23112L9.24805 8.33289V15.3329C9.24805 15.7471 8.91225 16.0829 8.49805 16.0829C8.11835 16.0829 7.80456 15.8007 7.7549 15.4347L7.74805 15.3329V8.33289C7.74805 7.91868 8.08384 7.58289 8.49805 7.58289ZM10.248 1.58289C9.32985 1.58289 8.57685 2.29 8.50385 3.18936L8.49805 3.33289H11.998C11.998 2.36639 11.2145 1.58289 10.248 1.58289Z" fill="#EB5757"/>
</svg>
